<svg viewBox="0 0 512 512" xmlns="http://www.w3.org/2000/svg"><path d="m482 396h-452c-11.050781 0-20 8.949219-20 20v66c0 11.050781 8.949219 20 20 20h452c11.050781 0 20-8.949219 20-20v-66c0-11.050781-8.949219-20-20-20zm0 0" fill="#424d63"/><path d="m462 156h-412c-11.050781 0-20 8.949219-20 20v220h452v-220c0-11.050781-8.949219-20-20-20zm0 0" fill="#cae9fc"/><path d="m336 396v36c0 11.050781-8.949219 20-20 20h-120c-11.050781 0-20-8.949219-20-20v-36zm0 0" fill="#e87288"/><path d="m326 90h60v66h-60zm0 0" fill="#424d63"/><path d="m106 90h100v206h-100zm0 0" fill="#fed2a4"/><path d="m276 196h140v80h-140zm0 0" fill="#ffe781"/><path d="m456 30v40c0 11.050781-8.949219 20-20 20-18.207031 0-134.574219 0-160 0-11.050781 0-20-8.949219-20-20v-40c0-11.050781 8.949219-20 20-20h160c11.050781 0 20 8.949219 20 20zm0 0" fill="#83c2b1"/><path d="m296.25 40c-5.519531 0-10 4.480469-10 10s4.480469 10 10 10 10-4.480469 10-10-4.480469-10-10-10zm0 0"/><path d="m492 387.71875v-211.71875c0-16.570312-13.429688-30-30-30h-66v-46h40c16.570312 0 30-13.429688 30-30v-40c0-16.570312-13.429688-30-30-30h-160c-16.570312 0-30 13.429688-30 30v40c0 16.570312 13.429688 30 30 30h40v46h-100v-56c0-5.523438-4.476562-10-10-10h-100c-5.523438 0-10 4.476562-10 10v56h-46c-16.570312 0-30 13.429688-30 30v211.71875c-11.640625 4.128906-20 15.246094-20 28.28125v66c0 16.570312 13.429688 30 30 30h452c16.570312 0 30-13.429688 30-30v-66c0-13.035156-8.359375-24.152344-20-28.28125zm-156-287.71875h40v46h-40zm-70-30v-40c0-5.523438 4.476562-10 10-10h160c5.523438 0 10 4.476562 10 10v40c0 5.523438-4.476562 10-10 10h-160c-5.523438 0-10-4.476562-10-10zm-150 30h80v186h-80zm-76 76c0-5.523438 4.476562-10 10-10h46v120c-6.007812 0-10.78125 5.300781-9.894531 11.484375.714843 4.960937 5.195312 8.515625 10.207031 8.515625h119.375c5.011719 0 9.492188-3.554688 10.207031-8.515625.886719-6.183594-3.886719-11.484375-9.894531-11.484375v-120h246c5.523438 0 10 4.476562 10 10v210h-432zm146 230h140v26c0 5.523438-4.476562 10-10 10h-120c-5.523438 0-10-4.476562-10-10zm306 76c0 5.523438-4.476562 10-10 10h-452c-5.523438 0-10-4.476562-10-10v-66c0-5.523438 4.476562-10 10-10h136v26c0 16.570312 13.429688 30 30 30h120c16.570312 0 30-13.429688 30-30v-26h136c5.523438 0 10 4.476562 10 10zm0 0"/><path d="m276 286h140c5.523438 0 10-4.476562 10-10v-80c0-5.523438-4.476562-10-10-10h-140c-5.523438 0-10 4.476562-10 10v80c0 5.523438 4.476562 10 10 10zm10-80h120v60h-120zm0 0"/><path d="m416.25 306h-20c-5.523438 0-10 4.476562-10 10s4.476562 10 10 10h20c5.523438 0 10-4.476562 10-10s-4.476562-10-10-10zm0 0"/><path d="m356.25 306h-20c-5.523438 0-10 4.476562-10 10s4.476562 10 10 10h20c5.523438 0 10-4.476562 10-10s-4.476562-10-10-10zm0 0"/><path d="m276.25 326h20c5.523438 0 10-4.476562 10-10s-4.476562-10-10-10h-20c-5.523438 0-10 4.476562-10 10s4.476562 10 10 10zm0 0"/><path d="m416.25 346h-20c-5.523438 0-10 4.476562-10 10s4.476562 10 10 10h20c5.523438 0 10-4.476562 10-10s-4.476562-10-10-10zm0 0"/><path d="m356.25 346h-20c-5.523438 0-10 4.476562-10 10s4.476562 10 10 10h20c5.523438 0 10-4.476562 10-10s-4.476562-10-10-10zm0 0"/><path d="m276.25 366h20c5.523438 0 10-4.476562 10-10s-4.476562-10-10-10h-20c-5.523438 0-10 4.476562-10 10s4.476562 10 10 10zm0 0"/><path d="m226.25 336c0-5.523438-4.476562-10-10-10h-120c-5.523438 0-10 4.476562-10 10s4.476562 10 10 10h120c5.523438 0 10-4.476562 10-10zm0 0"/><path d="m336.25 60h80c5.523438 0 10-4.476562 10-10s-4.476562-10-10-10h-80c-5.523438 0-10 4.476562-10 10s4.476562 10 10 10zm0 0"/></svg>