<svg id="Capa_1" enable-background="new 0 0 512 512" height="512" viewBox="0 0 512 512" width="512" xmlns="http://www.w3.org/2000/svg"><g><g><g><g><g><g><g><path d="m81.11 442.949c-49.916-46.715-81.11-113.189-81.11-186.949 0-141.385 114.615-256 256-256s256 114.615 256 256c0 73.76-31.194 140.234-81.11 186.949z" fill="#a3d4ff"/></g></g></g></g></g></g><path d="m511.854 264.732-179.413-179.925-147.28 215.333 142.81 142.81h102.919c47.938-44.865 78.609-107.953 80.964-178.218z" fill="#65b1fc"/><g><g><path d="m430.89 442.949-16.095-60.62c-4.345-16.362-16.178-29.587-31.736-35.787v131.751c17.314-9.918 33.359-21.8 47.831-35.344z" fill="#414952"/></g><g><path d="m97.195 382.37-16.084 60.58c14.471 13.544 30.516 25.426 47.831 35.344v-131.716c-15.563 6.197-27.402 19.424-31.747 35.792z" fill="#636978"/></g><g><path d="m383.059 346.542c-1.444-.575-2.92-1.09-4.425-1.542l-88.142-26.428h-68.477l-88.598 26.45c-1.522.455-3.015.974-4.475 1.556v92.984l126.322 41.293 127.795-40.78z" fill="#ffce00"/></g><g><path d="m383.059 346.542c-1.444-.575-2.92-1.09-4.425-1.542l-88.142-26.428h-34.847v162.16l127.415-40.658v-93.532z" fill="#fdba12"/></g></g><g><path d="m128.941 435v43.293c32.585 18.665 69.668 30.368 109.22 33.09v-43.748z" fill="#ff583e"/></g><g><path d="m383.059 435-109.277 33.088v43.3c39.574-2.715 76.677-14.42 109.277-33.094z" fill="#f92814"/></g><path d="m219.017 250v73.656c0 13.693 7.397 25.659 18.412 32.12v155.56c6.133.44 12.325.664 18.57.664s12.437-.224 18.57-.664v-155.296c11.268-6.396 18.87-18.501 18.87-32.383v-73.657z" fill="#636978"/><path d="m255.644 250v261.997c.119 0 .237.003.356.003 6.245 0 12.437-.224 18.57-.664v-155.296c11.268-6.396 18.87-18.501 18.87-32.383v-73.657z" fill="#414952"/><g fill="#ff583e"><path d="m150.761 238.306c8.571 50.374 52.422 88.729 105.239 88.729 52.816 0 96.668-38.355 105.239-88.729z"/><path d="m256 52.576c-54.669 0-99.734 41.092-106.009 94.074h212.018c-6.275-52.982-51.34-94.074-106.009-94.074z"/></g><g fill="#f92814"><path d="m255.644 238.306v88.725c.119 0 .237.004.356.004 52.816 0 96.668-38.355 105.239-88.729z"/><path d="m256 52.576c-.119 0-.237.004-.356.004v94.069h106.365c-6.275-52.981-51.34-94.073-106.009-94.073z"/></g><g><path d="m319.103 124.112c0-39.509-28.252-71.537-63.103-71.537-34.851 0-63.103 32.028-63.103 71.537v31.985h126.206z" fill="#f92814"/></g><g><path d="m319.103 124.112c0-39.509-28.252-71.537-63.103-71.537-.119 0-.237.009-.356.01v103.512h63.459z" fill="#db0404"/></g><g><g><path d="m257.166 254.315c-33.459-.001-66.937-7.52-97.159-21.78-.511-4.053-.77-8.16-.77-12.263v-60.934c0-1.329.027-2.662.081-3.992h193.362c.054 1.331.081 2.663.081 3.992v60.934c0 4.495-.31 8.99-.922 13.418-29.543 13.506-62.16 20.625-94.663 20.625-.002 0-.006 0-.01 0z" fill="#636978"/></g><g><path d="m352.681 155.346h-97.037v98.948c.507.003 1.015.021 1.522.021h.012c32.503 0 65.119-7.119 94.663-20.625.613-4.429.922-8.923.922-13.418v-60.934c0-1.329-.028-2.661-.082-3.992z" fill="#414952"/></g><g><path d="m342.763 165.346v54.926c0 2.205-.083 4.41-.248 6.604-26.859 11.434-56.148 17.439-85.349 17.439-30.103 0-60.223-6.365-87.753-18.482-.117-1.85-.176-3.707-.176-5.562v-54.926h173.526m19.091-19.999c-70.569 0-141.138 0-211.707 0-.6 4.579-.909 9.249-.909 13.992v60.934c0 6.472.576 12.809 1.679 18.963 33.417 16.719 69.839 25.081 106.249 25.081 35.489 0 70.965-7.936 103.683-23.816 1.256-6.55 1.914-13.312 1.914-20.227v-60.934c0-4.743-.31-9.414-.909-13.993z" fill="#414952"/></g><g><path d="m361.854 145.346c-35.403 0-70.806 0-106.209 0v20h87.119v54.926c0 2.205-.083 4.41-.248 6.604-26.859 11.434-56.148 17.439-85.349 17.439-.507 0-1.014-.017-1.522-.02v19.998c.507.003 1.014.022 1.522.022 35.489 0 70.965-7.937 103.683-23.816 1.256-6.55 1.914-13.312 1.914-20.228v-60.934c-.001-4.741-.311-9.412-.91-13.991z" fill="#23272b"/></g></g></g></svg>